<mxfile host="app.diagrams.net" modified="2022-06-30T07:43:37.942Z" agent="5.0 (Windows NT 10.0; Win64; x64) AppleWebKit/537.36 (KHTML, like Gecko) Chrome/101.0.0.0 Safari/537.36" etag="yLa3E1iZPl8UO7VPCD2Y" version="18.1.3" type="github">
  <diagram id="5G5pLSB4752_J3kw6D5k" name="第 1 页">
    <mxGraphModel dx="782" dy="436" grid="1" gridSize="10" guides="1" tooltips="1" connect="1" arrows="1" fold="1" page="1" pageScale="1" pageWidth="827" pageHeight="1169" math="0" shadow="0">
      <root>
        <mxCell id="0" />
        <mxCell id="1" parent="0" />
        <mxCell id="oWquUahyqCNIXPOBKiYZ-3" value="H5分享" style="edgeStyle=orthogonalEdgeStyle;rounded=0;orthogonalLoop=1;jettySize=auto;html=1;" edge="1" parent="1" source="oWquUahyqCNIXPOBKiYZ-1" target="oWquUahyqCNIXPOBKiYZ-2">
          <mxGeometry relative="1" as="geometry" />
        </mxCell>
        <mxCell id="oWquUahyqCNIXPOBKiYZ-1" value="微课堂APP" style="rounded=0;whiteSpace=wrap;html=1;" vertex="1" parent="1">
          <mxGeometry x="100" y="120" width="120" height="60" as="geometry" />
        </mxCell>
        <mxCell id="oWquUahyqCNIXPOBKiYZ-5" value="认证过保宝公众号" style="edgeStyle=orthogonalEdgeStyle;rounded=0;orthogonalLoop=1;jettySize=auto;html=1;" edge="1" parent="1" source="oWquUahyqCNIXPOBKiYZ-2" target="oWquUahyqCNIXPOBKiYZ-4">
          <mxGeometry relative="1" as="geometry" />
        </mxCell>
        <mxCell id="oWquUahyqCNIXPOBKiYZ-7" value="未认证过保宝公众号" style="edgeStyle=orthogonalEdgeStyle;rounded=0;orthogonalLoop=1;jettySize=auto;html=1;entryX=0.017;entryY=0.633;entryDx=0;entryDy=0;entryPerimeter=0;" edge="1" parent="1" source="oWquUahyqCNIXPOBKiYZ-2" target="oWquUahyqCNIXPOBKiYZ-6">
          <mxGeometry relative="1" as="geometry">
            <Array as="points">
              <mxPoint x="490" y="150" />
              <mxPoint x="490" y="218" />
            </Array>
          </mxGeometry>
        </mxCell>
        <mxCell id="oWquUahyqCNIXPOBKiYZ-8" value="用户打开" style="edgeLabel;html=1;align=center;verticalAlign=middle;resizable=0;points=[];" vertex="1" connectable="0" parent="oWquUahyqCNIXPOBKiYZ-7">
          <mxGeometry x="-0.7489" y="1" relative="1" as="geometry">
            <mxPoint as="offset" />
          </mxGeometry>
        </mxCell>
        <mxCell id="oWquUahyqCNIXPOBKiYZ-2" value="微信环境" style="rounded=0;whiteSpace=wrap;html=1;" vertex="1" parent="1">
          <mxGeometry x="300" y="120" width="120" height="60" as="geometry" />
        </mxCell>
        <mxCell id="oWquUahyqCNIXPOBKiYZ-4" value="" style="whiteSpace=wrap;html=1;rounded=0;" vertex="1" parent="1">
          <mxGeometry x="573" y="70" width="120" height="60" as="geometry" />
        </mxCell>
        <mxCell id="oWquUahyqCNIXPOBKiYZ-6" value="" style="rounded=0;whiteSpace=wrap;html=1;" vertex="1" parent="1">
          <mxGeometry x="573" y="180" width="120" height="60" as="geometry" />
        </mxCell>
      </root>
    </mxGraphModel>
  </diagram>
</mxfile>
